<mxfile host="app.diagrams.net" modified="2021-06-21T21:52:27.732Z" agent="5.0 (Windows)" etag="UrRSImKqpcKqRCpL-bsa" version="14.8.0" type="github">
  <diagram id="_b4yczjxz6ckv9aSSpgz" name="Page-1">
    <mxGraphModel dx="1550" dy="824" grid="1" gridSize="10" guides="1" tooltips="1" connect="1" arrows="1" fold="1" page="1" pageScale="1" pageWidth="850" pageHeight="1100" math="0" shadow="0">
      <root>
        <mxCell id="0" />
        <mxCell id="1" parent="0" />
        <mxCell id="9r3sJTnBNpcCIx0g8lGD-3" style="edgeStyle=orthogonalEdgeStyle;rounded=0;orthogonalLoop=1;jettySize=auto;html=1;entryX=0.625;entryY=0.2;entryDx=0;entryDy=0;entryPerimeter=0;" edge="1" parent="1" source="9r3sJTnBNpcCIx0g8lGD-1" target="9r3sJTnBNpcCIx0g8lGD-2">
          <mxGeometry relative="1" as="geometry" />
        </mxCell>
        <mxCell id="9r3sJTnBNpcCIx0g8lGD-1" value="LEARNING HUB" style="ellipse;shape=cloud;whiteSpace=wrap;html=1;" vertex="1" parent="1">
          <mxGeometry x="257.28" width="240" height="150" as="geometry" />
        </mxCell>
        <mxCell id="9r3sJTnBNpcCIx0g8lGD-8" style="edgeStyle=orthogonalEdgeStyle;rounded=0;orthogonalLoop=1;jettySize=auto;html=1;exitX=0.16;exitY=0.55;exitDx=0;exitDy=0;exitPerimeter=0;" edge="1" parent="1" source="9r3sJTnBNpcCIx0g8lGD-2" target="9r3sJTnBNpcCIx0g8lGD-4">
          <mxGeometry relative="1" as="geometry" />
        </mxCell>
        <mxCell id="9r3sJTnBNpcCIx0g8lGD-9" style="edgeStyle=orthogonalEdgeStyle;rounded=0;orthogonalLoop=1;jettySize=auto;html=1;exitX=0.13;exitY=0.77;exitDx=0;exitDy=0;exitPerimeter=0;entryX=0.88;entryY=0.25;entryDx=0;entryDy=0;entryPerimeter=0;" edge="1" parent="1" source="9r3sJTnBNpcCIx0g8lGD-2" target="9r3sJTnBNpcCIx0g8lGD-5">
          <mxGeometry relative="1" as="geometry" />
        </mxCell>
        <mxCell id="9r3sJTnBNpcCIx0g8lGD-10" style="edgeStyle=orthogonalEdgeStyle;rounded=0;orthogonalLoop=1;jettySize=auto;html=1;exitX=0.31;exitY=0.8;exitDx=0;exitDy=0;exitPerimeter=0;" edge="1" parent="1" source="9r3sJTnBNpcCIx0g8lGD-2" target="9r3sJTnBNpcCIx0g8lGD-6">
          <mxGeometry relative="1" as="geometry" />
        </mxCell>
        <mxCell id="9r3sJTnBNpcCIx0g8lGD-11" style="edgeStyle=orthogonalEdgeStyle;rounded=0;orthogonalLoop=1;jettySize=auto;html=1;exitX=0.8;exitY=0.8;exitDx=0;exitDy=0;exitPerimeter=0;entryX=0.625;entryY=0.2;entryDx=0;entryDy=0;entryPerimeter=0;" edge="1" parent="1" source="9r3sJTnBNpcCIx0g8lGD-2" target="9r3sJTnBNpcCIx0g8lGD-7">
          <mxGeometry relative="1" as="geometry">
            <mxPoint x="610" y="500" as="targetPoint" />
          </mxGeometry>
        </mxCell>
        <mxCell id="9r3sJTnBNpcCIx0g8lGD-17" style="edgeStyle=orthogonalEdgeStyle;rounded=0;orthogonalLoop=1;jettySize=auto;html=1;exitX=0.875;exitY=0.5;exitDx=0;exitDy=0;exitPerimeter=0;entryX=0.525;entryY=0.138;entryDx=0;entryDy=0;entryPerimeter=0;" edge="1" parent="1" source="9r3sJTnBNpcCIx0g8lGD-2" target="9r3sJTnBNpcCIx0g8lGD-16">
          <mxGeometry relative="1" as="geometry" />
        </mxCell>
        <mxCell id="9r3sJTnBNpcCIx0g8lGD-19" style="edgeStyle=orthogonalEdgeStyle;rounded=0;orthogonalLoop=1;jettySize=auto;html=1;exitX=0.55;exitY=0.95;exitDx=0;exitDy=0;exitPerimeter=0;entryX=0.25;entryY=0.25;entryDx=0;entryDy=0;entryPerimeter=0;" edge="1" parent="1" source="9r3sJTnBNpcCIx0g8lGD-2" target="9r3sJTnBNpcCIx0g8lGD-18">
          <mxGeometry relative="1" as="geometry">
            <mxPoint x="450" y="600" as="targetPoint" />
          </mxGeometry>
        </mxCell>
        <mxCell id="9r3sJTnBNpcCIx0g8lGD-21" style="edgeStyle=orthogonalEdgeStyle;rounded=0;orthogonalLoop=1;jettySize=auto;html=1;exitX=0.96;exitY=0.7;exitDx=0;exitDy=0;exitPerimeter=0;entryX=0.25;entryY=0.25;entryDx=0;entryDy=0;entryPerimeter=0;" edge="1" parent="1" source="9r3sJTnBNpcCIx0g8lGD-2" target="9r3sJTnBNpcCIx0g8lGD-13">
          <mxGeometry relative="1" as="geometry" />
        </mxCell>
        <mxCell id="9r3sJTnBNpcCIx0g8lGD-2" value="LEARNING CENTRE" style="ellipse;shape=cloud;whiteSpace=wrap;html=1;" vertex="1" parent="1">
          <mxGeometry x="257.28" y="220" width="225.45" height="160" as="geometry" />
        </mxCell>
        <mxCell id="9r3sJTnBNpcCIx0g8lGD-4" value="SBCPS" style="ellipse;shape=cloud;whiteSpace=wrap;html=1;" vertex="1" parent="1">
          <mxGeometry y="420" width="120" height="80" as="geometry" />
        </mxCell>
        <mxCell id="9r3sJTnBNpcCIx0g8lGD-5" value="MBCPS" style="ellipse;shape=cloud;whiteSpace=wrap;html=1;" vertex="1" parent="1">
          <mxGeometry x="110" y="340" width="120" height="80" as="geometry" />
        </mxCell>
        <mxCell id="9r3sJTnBNpcCIx0g8lGD-6" value="L@WW" style="ellipse;shape=cloud;whiteSpace=wrap;html=1;" vertex="1" parent="1">
          <mxGeometry x="180" y="490" width="120" height="80" as="geometry" />
        </mxCell>
        <mxCell id="9r3sJTnBNpcCIx0g8lGD-7" value="Ethics" style="ellipse;shape=cloud;whiteSpace=wrap;html=1;" vertex="1" parent="1">
          <mxGeometry x="430" y="440" width="120" height="80" as="geometry" />
        </mxCell>
        <mxCell id="9r3sJTnBNpcCIx0g8lGD-13" value="&lt;div&gt;House of &lt;br&gt;&lt;/div&gt;&lt;div&gt;Indigenous Learning&lt;/div&gt;" style="ellipse;shape=cloud;whiteSpace=wrap;html=1;" vertex="1" parent="1">
          <mxGeometry x="560" y="330" width="150" height="100" as="geometry" />
        </mxCell>
        <mxCell id="9r3sJTnBNpcCIx0g8lGD-16" value="FiVE" style="ellipse;shape=cloud;whiteSpace=wrap;html=1;" vertex="1" parent="1">
          <mxGeometry x="640" y="250" width="120" height="80" as="geometry" />
        </mxCell>
        <mxCell id="9r3sJTnBNpcCIx0g8lGD-18" value="&lt;div&gt;Project &lt;br&gt;&lt;/div&gt;&lt;div&gt;Management&lt;/div&gt;" style="ellipse;shape=cloud;whiteSpace=wrap;html=1;" vertex="1" parent="1">
          <mxGeometry x="340" y="510" width="120" height="80" as="geometry" />
        </mxCell>
      </root>
    </mxGraphModel>
  </diagram>
</mxfile>
